<?xml version="1.0" standalone="no"?>
<!DOCTYPE svg PUBLIC "-//W3C//DTD SVG 20010904//EN"
 "http://www.w3.org/TR/2001/REC-SVG-20010904/DTD/svg10.dtd">
<svg version="1.0" xmlns="http://www.w3.org/2000/svg"
 width="475.000000pt" height="475.000000pt" viewBox="0 0 475.000000 475.000000"
 preserveAspectRatio="xMidYMid meet">
<metadata>
Created by potrace 1.14, written by Peter Selinger 2001-2017
</metadata>
<g transform="translate(0.000000,475.000000) scale(0.100000,-0.100000)"
fill="#000000" stroke="none">
<path d="M2208 4745 c-1 -1 -36 -6 -76 -9 -40 -4 -78 -9 -85 -11 -7 -2 -30 -6
-52 -9 -242 -33 -582 -161 -818 -310 -206 -129 -432 -329 -580 -511 -180 -224
-327 -493 -416 -765 -25 -76 -77 -288 -86 -345 -3 -23 -7 -51 -10 -64 -20
-107 -27 -434 -12 -586 30 -303 112 -581 251 -857 189 -375 494 -710 851 -934
68 -43 269 -146 350 -179 53 -22 197 -70 265 -88 54 -15 162 -38 240 -52 118
-20 442 -27 585 -13 266 28 570 121 815 250 88 46 301 181 332 210 7 7 36 31
63 52 206 163 444 454 578 706 145 272 243 591 274 883 19 184 7 542 -22 676
-6 29 -13 64 -20 101 -15 84 -73 270 -126 410 -30 78 -151 304 -213 399 -125
189 -315 401 -471 526 -27 22 -56 46 -63 53 -25 23 -237 160 -302 195 -339
181 -663 265 -1052 272 -108 2 -198 2 -200 0z"/>
</g>
</svg>
